<svg xmlns="http://www.w3.org/2000/svg" viewBox="0 0 312 100"><g data-name="Layer 2"><g data-name="Layer 1"><path d="M75 93.29A49.9 49.9 0 0087.74 82.8a15 15 0 01-20.21-15 25 25 0 01-39.18-5.3A12.5 12.5 0 006.7 75 50 50 0 0075 93.29z" fill="#00caff"/><path d="M93.31 25A49.87 49.87 0 0059.57.95a15 15 0 01-2.89 25 25 25 0 0115 36.58A12.5 12.5 0 0093.31 75c.14-.25.26-.5.38-.75A49.92 49.92 0 0093.31 25z" fill="#007adb"/><path d="M62.5 12.5A12.5 12.5 0 0050 0h-.74A50 50 0 002.73 66.28a15 15 0 0123.07-10A25 25 0 0150 25a12.5 12.5 0 0012.5-12.5z" fill="#ee3f36"/><path d="M137.62 69.19h-22.87V30.27h22.87V37h-14.45v8.54h13.44v6.76h-13.44v10h14.45zm39-19.83q0 9.61-5.58 14.72t-16.12 5.11h-11.24V30.27h12.46q9.72 0 15.1 5t5.38 14.09zm-8.74.21q0-12.54-11.3-12.54h-4.48v25.35h3.61q12.16 0 12.16-12.81zm26.88 13.69a18.26 18.26 0 005.21-.93v6a18.92 18.92 0 01-7.6 1.36q-5 0-7.24-2.46t-2.27-7.39V45.53h-4v-3.44l4.56-2.72 2.39-6.28h5.3v6.34h8.5v6.1h-8.5v14.35a3.14 3.14 0 001 2.56 4 4 0 002.65.82zm22.87 6.47q-7.33 0-11.46-4T202 54.53Q202 47 205.86 43t10.55-4.09q6.44 0 10 3.59t3.59 9.9v3.94h-19.57a7.73 7.73 0 002.09 5.4 7.44 7.44 0 005.48 1.94 23.23 23.23 0 005.19-.56 26.29 26.29 0 005.11-1.78v6.28a19.73 19.73 0 01-4.64 1.58 29.87 29.87 0 01-6.03.53zm-1.17-25.08a5.31 5.31 0 00-4.13 1.64 7.49 7.49 0 00-1.71 4.65h11.62a6.69 6.69 0 00-1.6-4.65 5.48 5.48 0 00-4.18-1.64zm37.34 24.54l-1.6-4h-.2a12.18 12.18 0 01-4.3 3.58 14.16 14.16 0 01-5.77 1 9.44 9.44 0 01-6.93-2.49q-2.51-2.45-2.51-7 0-4.74 3.38-7t10.2-2.49l5.27-.16v-1.3q0-4.52-4.73-4.53a21.88 21.88 0 00-8.53 2.2l-2.74-5.48a25.09 25.09 0 0111.66-2.7q6.11 0 9.37 2.61t3.26 7.93v19.83zm-2.44-13.79l-3.2.11a10.43 10.43 0 00-5.38 1.28 4 4 0 00-1.78 3.57q0 3.43 4 3.43a6.44 6.44 0 004.6-1.62 5.64 5.64 0 001.72-4.31zm41.72 13.79h-8.28V51.81a8.62 8.62 0 00-1.1-4.83 3.9 3.9 0 00-3.46-1.61 5 5 0 00-4.62 2.29q-1.44 2.29-1.44 7.53v14h-8.28V39.43h6.33l1.11 3.81h.46a8.36 8.36 0 013.52-3.24 11.66 11.66 0 015.3-1.16q6.82 0 9.23 4.37h.73a8.14 8.14 0 013.6-3.22 12.21 12.21 0 015.36-1.14q5.16 0 7.81 2.6t2.65 8.34v19.4h-8.31V51.81a8.62 8.62 0 00-1.1-4.83 3.9 3.9 0 00-3.46-1.61 5.2 5.2 0 00-4.55 2.13q-1.51 2.13-1.51 6.76z" fill="#282d31"/></g></g></svg>